<svg width="20" height="20" viewBox="0 0 20 20" fill="none" xmlns="http://www.w3.org/2000/svg">
<path fill-rule="evenodd" clip-rule="evenodd" d="M6.1648 1.78373L4.60635 4.63034C4.48083 4.86048 4.23712 5.00297 3.9724 5.00297H1.39919C0.856162 5.00297 0.416016 5.43689 0.416016 5.97184V17.5066C0.416016 18.0414 0.856062 18.4749 1.39919 18.4749H18.4328C18.976 18.4749 19.416 18.0414 19.416 17.5066V5.97184C19.416 5.43689 18.9759 5.00297 18.4328 5.00297H15.8596C15.5949 5.00297 15.3512 4.86054 15.2257 4.63034L13.6672 1.78373C13.4956 1.47035 13.1633 1.2749 12.8021 1.2749H7.02995C6.66877 1.2749 6.33641 1.47036 6.1648 1.78373ZM7.41261 3.5843C7.53849 3.35544 7.78172 3.21216 8.04629 3.21216H11.7857C12.0503 3.21216 12.2935 3.35544 12.4194 3.5843L13.9781 6.4314C14.1498 6.74478 14.4821 6.94023 14.8433 6.94023H16.7295C17.1272 6.94023 17.4497 7.25819 17.4497 7.64966V15.8289C17.4497 16.2206 17.127 16.5378 16.7295 16.5378H3.10255C2.705 16.5378 2.38236 16.2206 2.38236 15.8289V7.64966C2.38236 7.25819 2.7048 6.94023 3.10255 6.94023H4.98875C5.34992 6.94023 5.68227 6.74479 5.85389 6.43141L7.41261 3.5843Z" fill="#141C1E"/>
<path d="M11.677 6.49753L11.7048 6.40149C11.8241 6.43605 11.9445 6.38596 11.9958 6.28611L11.9959 6.28576L12.0376 6.20552L12.0378 6.20509L12.1266 6.25115C12.2552 6.00038 12.6241 6.00881 12.7412 6.26499L11.677 6.49753ZM11.677 6.49753L11.7049 6.40152C11.23 6.26326 10.7346 6.19064 10.2355 6.19064C8.77882 6.19064 7.57225 6.64592 6.74668 7.4716C5.92051 8.29786 5.48623 9.48476 5.55535 10.9268M11.677 6.49753C11.8377 6.54411 12.0094 6.47829 12.0847 6.33181L13.269 8.45023L11.4899 8.836C11.1326 8.9135 10.832 8.5484 11.0022 8.21796L11.0022 8.21781L11.0534 8.11881C11.1234 7.98262 11.0425 7.81383 10.8866 7.78419C10.6721 7.74406 10.4546 7.72212 10.2355 7.72212C9.23168 7.72212 8.4533 7.98454 7.9264 8.47825C7.40053 8.971 7.11103 9.70742 7.11103 10.6855C7.11103 10.7535 7.11301 10.8211 7.11693 10.8883C7.13483 11.1949 6.9508 11.5013 6.63655 11.5778L6.27833 11.6651C5.95347 11.7443 5.61143 11.5405 5.57545 11.1928C5.56634 11.1047 5.55962 11.0161 5.55535 10.9268M5.55535 10.9268L5.65524 10.9221L5.55535 10.9268ZM8.00413 15.2032L8.00395 15.2036L7.96231 15.2838C7.79558 15.609 7.31961 15.598 7.16777 15.2659L7.16777 15.2659L6.42426 13.6392L6.42423 13.6391L8.00413 15.2032ZM8.00413 15.2032C8.05543 15.1034 8.17582 15.0533 8.29505 15.0878M8.00413 15.2032L8.29505 15.0878M14.4445 10.5625C14.4403 10.4733 14.4335 10.3846 14.4244 10.2966C14.3885 9.94887 14.0464 9.74501 13.7216 9.82418L13.3633 9.91148C13.0491 9.98807 12.8651 10.2944 12.883 10.6011C12.8869 10.6682 12.8889 10.7358 12.8889 10.8039C12.8889 11.7819 12.5994 12.5183 12.0735 13.0111C11.5466 13.5048 10.7682 13.7672 9.76441 13.7672C9.5453 13.7672 9.3277 13.7453 9.11318 13.7051L9.09479 13.8034L14.4445 10.5625ZM14.4445 10.5625C14.5137 12.0046 14.0794 13.1915 13.2532 14.0177C12.4276 14.8434 11.2211 15.2987 9.76441 15.2987C9.26537 15.2987 8.76999 15.2261 8.29505 15.0878M14.4445 10.5625L8.29505 15.0878" fill="#141C1E" stroke="#141C1E" stroke-width="0.2"/>
</svg>
